<?xml version="1.0" standalone="no"?>
<!DOCTYPE svg PUBLIC "-//W3C//DTD SVG 20010904//EN"
 "http://www.w3.org/TR/2001/REC-SVG-20010904/DTD/svg10.dtd">
<svg version="1.0" xmlns="http://www.w3.org/2000/svg"
 width="2039.000000pt" height="2039.000000pt" viewBox="0 0 2039.000000 2039.000000"
 preserveAspectRatio="xMidYMid meet">
<metadata>
Created by potrace 1.14, written by Peter Selinger 2001-2017
</metadata>
<g transform="translate(0.000000,2039.000000) scale(0.100000,-0.100000)"
fill="#000000" stroke="none">
<path d="M5850 16693 c-97 -31 -333 -89 -450 -109 -14 -2 -47 -9 -75 -14 -27
-5 -70 -12 -95 -15 -25 -3 -56 -8 -70 -10 -185 -27 -290 -37 -505 -51 -235
-16 -1093 -8 -1191 10 -18 3 -194 16 -274 19 l-35 2 0 -172 -1 -173 46 -1
c333 -9 584 -70 765 -186 84 -55 171 -140 221 -219 95 -148 176 -382 200 -579
3 -22 7 -46 10 -53 2 -7 7 -57 11 -110 11 -130 10 -9975 0 -10076 -10 -101
-42 -268 -57 -295 -6 -12 -8 -21 -6 -21 8 0 -59 -154 -88 -204 -38 -65 -121
-152 -189 -198 -77 -52 -213 -114 -296 -134 -9 -2 -34 -8 -56 -13 -45 -11 -84
-19 -135 -27 -19 -3 -45 -7 -58 -9 -35 -6 -200 -18 -282 -20 -41 -2 -77 -3
-80 -4 -3 -1 -5 -79 -5 -173 l0 -173 50 1 c28 0 113 4 190 8 77 4 178 9 225
11 47 3 144 7 215 10 741 36 1852 40 2375 10 30 -2 116 -6 190 -9 74 -4 169
-9 210 -11 162 -10 297 -17 350 -18 l55 -2 0 175 0 174 -73 2 c-79 2 -200 11
-244 19 -57 10 -74 14 -123 24 -99 23 -181 55 -300 118 -16 9 -62 49 -102 89
-56 56 -82 93 -117 166 -63 129 -106 299 -124 493 -10 109 -9 4213 1 4350 5
61 10 124 12 140 2 17 6 53 9 80 26 253 131 683 216 880 5 11 25 58 45 105
107 250 273 514 454 720 248 283 502 466 836 601 61 24 182 60 265 78 133 28
146 30 230 37 41 3 81 7 89 10 7 2 70 4 140 4 512 0 811 -117 1036 -405 121
-154 212 -362 249 -570 3 -16 8 -41 11 -55 2 -14 7 -41 9 -60 3 -19 7 -52 10
-72 20 -130 31 -243 42 -419 10 -153 10 -5246 0 -5378 -4 -57 -9 -111 -11
-121 -2 -9 -6 -41 -10 -70 -20 -158 -94 -357 -168 -455 -148 -194 -418 -296
-819 -309 -37 -1 -70 -5 -74 -9 -5 -5 -9 -284 -5 -339 1 -3 25 -5 54 -3 28 2
108 6 177 10 69 4 152 9 185 11 33 2 121 6 195 10 74 3 162 7 195 9 492 26
1617 26 2155 0 115 -5 369 -17 455 -20 141 -6 341 -16 393 -20 l52 -5 0 178 0
177 -88 1 c-80 1 -212 10 -272 19 -44 6 -125 18 -130 20 -3 1 -21 5 -40 9
-200 44 -372 127 -475 231 -111 110 -199 310 -231 520 -4 28 -8 55 -9 60 -15
71 -18 544 -21 2645 -1 1356 -5 2510 -8 2565 -23 408 -59 668 -130 940 -2 6
-6 24 -11 40 -36 139 -154 396 -243 530 -276 415 -732 707 -1267 811 -22 4
-42 8 -45 9 -5 1 -80 13 -135 21 -31 4 -79 9 -205 21 -151 13 -586 6 -677 -11
-10 -2 -40 -7 -68 -10 -43 -6 -150 -24 -235 -40 -26 -5 -91 -22 -220 -57 -278
-76 -660 -250 -875 -398 -210 -144 -455 -385 -586 -577 -18 -27 -35 -51 -39
-54 -10 -8 -104 -159 -161 -260 -72 -125 -164 -315 -219 -450 -12 -30 -28 -68
-35 -85 -12 -25 -14 460 -14 3073 -1 2475 -4 3102 -13 3101 -7 -1 -33 -8 -58
-16z"/>
<path d="M15057 16414 c-1 -1 -33 -4 -72 -8 -241 -23 -455 -128 -637 -313
-217 -219 -316 -459 -312 -753 2 -141 6 -174 35 -279 46 -169 136 -318 279
-461 173 -173 342 -264 570 -305 73 -13 303 -14 360 -1 14 3 36 8 49 11 214
42 447 192 608 390 242 299 296 723 138 1080 -133 300 -468 569 -770 620 -75
12 -240 25 -248 19z"/>
<path d="M15885 12413 c-44 -13 -87 -26 -95 -28 -173 -42 -291 -68 -391 -85
-150 -25 -162 -27 -219 -35 -138 -18 -169 -22 -265 -30 -38 -4 -86 -8 -105
-10 -262 -28 -975 -24 -1370 9 -36 3 -104 8 -152 12 l-88 6 0 -176 0 -176 83
-1 c158 -2 301 -21 427 -55 30 -8 62 -16 70 -18 43 -11 184 -78 236 -112 206
-136 349 -402 408 -759 23 -140 25 -153 33 -275 9 -151 9 -5546 0 -5672 -5
-53 -9 -105 -11 -115 -2 -10 -7 -38 -11 -63 -31 -205 -117 -398 -227 -512
-119 -123 -347 -222 -583 -254 -27 -3 -59 -8 -70 -10 -34 -7 -186 -17 -270
-18 l-80 -2 -3 -176 -2 -177 57 4 c32 2 121 7 198 10 77 4 169 8 205 10 36 2
135 7 220 10 85 4 184 8 220 10 477 26 1728 26 2235 0 44 -2 145 -6 225 -10
80 -3 181 -8 225 -10 44 -2 136 -7 205 -10 69 -3 151 -8 183 -11 l57 -4 0 178
0 178 -62 0 c-405 0 -722 89 -928 261 -111 92 -216 327 -246 548 -3 22 -7 45
-9 52 -16 49 -19 636 -19 3876 -1 2017 -1 3667 -1 3666 0 -1 -36 -12 -80 -26z"/>
</g>
</svg>
